{"title":"Les.Bien.Aimes.PROPER.BRRip.AC3.HORiZON-ArtSubs","uid":6953788,"size":2092894266,"categoryP":"video","categoryS":"movies","magnet":"?xt=urn:btih:20853c57f0c2cbd52159960bf912800dd84b1fcc&amp;dn=Les.Bien.Aimes.PROPER.BRRip.AC3.HORiZON-ArtSubs&amp;tr=udp%3A%2F%2Ftracker.openbittorrent.com%3A80&amp;tr=udp%3A%2F%2Fopen.demonii.com%3A1337&amp;tr=udp%3A%2F%2Ftracker.coppersurfer.tk%3A6969&amp;tr=udp%3A%2F%2Fexodus.desync.com%3A6969","seeders":3,"leechers":1,"uploader":"lletaif","files":2,"time":1326505254,"description":"Titles: Le Bien-AimÃƒÂ©s (2011)\n\nDirector: Christophe HonorÃƒÂ©\n\nWriter: Christophe HonorÃƒÂ© \n\nStars: Chiara Mastroianni, Catherine Deneuve and Ludivine Sagnier\n\nLanguage: French\n\nSubtitle: French for english parts\n\nImdb: http://www.imdb.com/title/tt1815799/\n\nPlot: Paris in the sixties to the London of the 2000s, Madeleine and her daughter Vera come and go around the men they love. But all ages can not live love lightly. How to resist the passage of time and that addresses our deepest feelings? New film from french master Christophe HonorÃƒÂ© (&quot;Love Songs&quot;), &quot;Le Bien-Aime&quot; was the closing film of the Cannes Film Festival 2011.\n\nRip Specs:\nGeneral\nComplete name                 : Les.Bien.Aimes.PROPER.BRRip.AC3.HORiZON-ArtSubs\nFormat                           : AVI\nFormat/Info                      : Audio Video Interleave\nFile size                        : 1.95 GiB\nDuration                         : 2h 18mn\nOverall bit rate                 : 2 014 Kbps\nWriting application              : FairUse Wizard - http://fairusewizard.com\nWriting library                  : The best and REALLY easy backup tool\n\nVideo\nID                               : 0\nFormat                           : MPEG-4 Visual\nFormat profile                   : Advanced Simple@L5\nFormat settings, BVOP            : 1\nFormat settings, QPel            : No\nFormat settings, GMC             : No warppoints\nFormat settings, Matrix          : Default (MPEG)\nMuxing mode                      : Packed bitstream\nCodec ID                         : XVID\nCodec ID/Hint                    : XviD\nDuration                         : 2h 18mn\nBit rate                         : 1 557 Kbps\nWidth                            : 688 pixels\nHeight                           : 288 pixels\nDisplay aspect ratio             : 2.40:1\nFrame rate                       : 23.976 fps\nColor space                      : YUV\nChroma subsampling               : 4:2:0\nBit depth                        : 8 bits\nScan type                        : Progressive\nCompression mode                 : Lossy\nBits/(Pixel*Frame)               : 0.328\nStream size                      : 1.51 GiB (77%)\nWriting library                  : XviD 1.2.0.dev47 (UTC 2006-11-01)\n\nAudio\nID                               : 1\nFormat                           : AC-3\nFormat/Info                      : Audio Coding 3\nMode extension                   : CM (complete main)\nCodec ID                         : 2000\nDuration                         : 2h 18mn\nBit rate mode                    : Constant\nBit rate                         : 448 Kbps\nChannel(s)                       : 6 channels\nChannel positions                : Front: L C R, Side: L R, LFE\nSampling rate                    : 48.0 KHz\nBit depth                        : 16 bits\nCompression mode                 : Lossy\nStream size                      : 444 MiB (22%)\nAlignment                        : Split accross interleaves\nInterleave, duration             : 42 ms (1.00 video frame)\nInterleave, preload duration     : 500 ms\n\n\n","torrent":{"xt":"urn:btih:20853c57f0c2cbd52159960bf912800dd84b1fcc","amp;dn":"Les.Bien.Aimes.PROPER.BRRip.AC3.HORiZON-ArtSubs","amp;tr":["udp%3A%2F%2Ftracker.openbittorrent.com%3A80","udp%3A%2F%2Fopen.demonii.com%3A1337","udp%3A%2F%2Ftracker.coppersurfer.tk%3A6969","udp%3A%2F%2Fexodus.desync.com%3A6969"],"infoHash":"20853c57f0c2cbd52159960bf912800dd84b1fcc","infoHashBuffer":{"type":"Buffer","data":[32,133,60,87,240,194,203,213,33,89,150,11,249,18,128,13,216,75,31,204]},"announce":[],"urlList":[]}}